# Blender v2.79 (sub 0) OBJ File: ''
# www.blender.org
mtllib rocket.mtl
o Cone.001
v 0.012710 0.054664 -0.497182
v 0.118937 0.043907 -0.497182
v 0.221023 0.012633 -0.497182
v 0.315047 -0.037957 -0.497182
v 0.397394 -0.105917 -0.497182
v 0.464901 -0.188637 -0.497182
v 0.514973 -0.282938 -0.497182
v 0.545686 -0.385195 -0.497182
v 0.555859 -0.491479 -0.497182
v 0.545102 -0.597705 -0.497182
v 0.513827 -0.699792 -0.497182
v 0.463238 -0.793815 -0.497182
v 0.395277 -0.876163 -0.497182
v 0.312557 -0.943670 -0.497182
v 0.218257 -0.993742 -0.497182
v 0.115999 -1.024454 -0.497182
v 0.009715 -1.034627 -0.497182
v -0.096511 -1.023870 -0.497182
v -0.198598 -0.992596 -0.497182
v -0.292621 -0.942006 -0.497182
v -0.374969 -0.874045 -0.497182
v -0.442476 -0.791325 -0.497182
v -0.492548 -0.697025 -0.497182
v 0.011213 -0.489982 1.498409
v -0.523260 -0.594768 -0.497182
v -0.533433 -0.488484 -0.497182
v -0.522676 -0.382257 -0.497182
v -0.491401 -0.280171 -0.497182
v -0.440812 -0.186147 -0.497182
v -0.372851 -0.103799 -0.497182
v -0.290131 -0.036293 -0.497182
v -0.195830 0.013779 -0.497182
v -0.093573 0.044491 -0.497182
v 0.012540 -0.007337 5.789100
v 0.106673 -0.016870 5.789100
v 0.197139 -0.044584 5.789100
v 0.280459 -0.089415 5.789100
v 0.353432 -0.149639 5.789100
v 0.413254 -0.222942 5.789100
v 0.457626 -0.306508 5.789100
v 0.484842 -0.397124 5.789100
v 0.493857 -0.491309 5.789100
v 0.484325 -0.585442 5.789100
v 0.456610 -0.675907 5.789100
v 0.411780 -0.759228 5.789100
v 0.351556 -0.832201 5.789100
v 0.278252 -0.892023 5.789100
v 0.194687 -0.936395 5.789100
v 0.104071 -0.963611 5.789100
v 0.009886 -0.972626 5.789100
v -0.084248 -0.963093 5.789100
v -0.174713 -0.935379 5.789100
v -0.258033 -0.890549 5.789100
v -0.331007 -0.830324 5.789100
v -0.390828 -0.757021 5.789100
v -0.435200 -0.673456 5.789100
v 0.011213 -0.489982 7.557516
v -0.462416 -0.582839 5.789100
v -0.471431 -0.488655 5.789100
v -0.461899 -0.394521 5.789100
v -0.434184 -0.304056 5.789100
v -0.389354 -0.220735 5.789100
v -0.329130 -0.147762 5.789100
v -0.255826 -0.087940 5.789100
v -0.172261 -0.043569 5.789100
v -0.081644 -0.016352 5.789100
v 0.012557 -0.001151 0.481106
v 0.012557 -0.001151 5.780330
v 0.107897 -0.010806 0.481106
v 0.107897 -0.010806 5.780330
v 0.199522 -0.038875 0.481106
v 0.199522 -0.038875 5.780330
v 0.283910 -0.084280 0.481106
v 0.283910 -0.084280 5.780330
v 0.357819 -0.145276 0.481106
v 0.357819 -0.145276 5.780330
v 0.418407 -0.219519 0.481106
v 0.418407 -0.219519 5.780330
v 0.463348 -0.304156 0.481106
v 0.463348 -0.304156 5.780330
v 0.490913 -0.395933 0.481106
v 0.490913 -0.395934 5.780330
v 0.500044 -0.491325 0.481106
v 0.500044 -0.491326 5.780330
v 0.490389 -0.586666 0.481106
v 0.490389 -0.586666 5.780330
v 0.462320 -0.678290 0.481106
v 0.462320 -0.678291 5.780330
v 0.416914 -0.762679 0.481106
v 0.416914 -0.762679 5.780330
v 0.355918 -0.836587 0.481106
v 0.355918 -0.836588 5.780330
v 0.281675 -0.897176 0.481106
v 0.281675 -0.897176 5.780330
v 0.197039 -0.942117 0.481106
v 0.197039 -0.942117 5.780330
v 0.105261 -0.969682 0.481106
v 0.105261 -0.969682 5.780330
v 0.009869 -0.978812 0.481106
v 0.009869 -0.978813 5.780330
v -0.085471 -0.969157 0.481106
v -0.085471 -0.969158 5.780330
v -0.177096 -0.941088 0.481106
v -0.177096 -0.941088 5.780330
v -0.261485 -0.895683 0.481106
v -0.261485 -0.895683 5.780330
v -0.335393 -0.834687 0.481106
v -0.335393 -0.834687 5.780330
v -0.395982 -0.760444 0.481106
v -0.395982 -0.760444 5.780330
v -0.440922 -0.675807 0.481106
v -0.440922 -0.675807 5.780330
v -0.468487 -0.584029 0.481106
v -0.468487 -0.584030 5.780330
v -0.477618 -0.488637 0.481106
v -0.477618 -0.488638 5.780330
v -0.467963 -0.393297 0.481106
v -0.467963 -0.393297 5.780330
v -0.439893 -0.301672 0.481106
v -0.439893 -0.301672 5.780330
v -0.394488 -0.217284 0.481106
v -0.394488 -0.217284 5.780330
v -0.333492 -0.143375 0.481106
v -0.333492 -0.143376 5.780330
v -0.259249 -0.082787 0.481106
v -0.259249 -0.082787 5.780330
v -0.174612 -0.037846 0.481106
v -0.174612 -0.037846 5.780330
v -0.082835 -0.010281 0.481106
v -0.082835 -0.010281 5.780330
vt 0.000000 0.000000
vt 1.000000 0.000000
vt 1.000000 1.000000
vt 0.000000 0.000000
vt 1.000000 1.000000
vt 0.000000 0.000000
vt 1.000000 1.000000
vt 0.000000 0.000000
vt 1.000000 1.000000
vt 0.000000 0.000000
vt 1.000000 1.000000
vt 0.000000 0.000000
vt 1.000000 1.000000
vt 0.000000 0.000000
vt 1.000000 1.000000
vt 0.000000 0.000000
vt 1.000000 1.000000
vt 0.000000 0.000000
vt 1.000000 1.000000
vt 0.000000 0.000000
vt 1.000000 1.000000
vt 0.000000 0.000000
vt 1.000000 1.000000
vt 0.000000 0.000000
vt 1.000000 1.000000
vt 0.000000 0.000000
vt 1.000000 1.000000
vt 0.000000 0.000000
vt 1.000000 1.000000
vt 0.000000 0.000000
vt 1.000000 1.000000
vt 0.000000 0.000000
vt 1.000000 1.000000
vt 0.000000 0.000000
vt 1.000000 1.000000
vt 0.000000 0.000000
vt 1.000000 1.000000
vt 0.000000 0.000000
vt 1.000000 1.000000
vt 0.000000 0.000000
vt 1.000000 1.000000
vt 0.000000 0.000000
vt 1.000000 1.000000
vt 0.000000 0.000000
vt 1.000000 1.000000
vt 0.000000 0.000000
vt 1.000000 1.000000
vt 0.000000 0.000000
vt 1.000000 1.000000
vt 0.000000 0.000000
vt 1.000000 1.000000
vt 0.000000 0.000000
vt 1.000000 1.000000
vt 0.000000 0.000000
vt 1.000000 1.000000
vt 0.000000 0.000000
vt 1.000000 1.000000
vt 0.000000 0.000000
vt 1.000000 1.000000
vt 0.000000 0.000000
vt 1.000000 1.000000
vt 0.000000 0.000000
vt 1.000000 1.000000
vt 0.000000 0.000000
vt 1.000000 1.000000
vt 1.000000 0.000000
vt 0.000000 0.000000
vt 1.000000 0.000000
vt 1.000000 1.000000
vt 0.000000 0.000000
vt 1.000000 1.000000
vt 0.000000 0.000000
vt 1.000000 1.000000
vt 0.000000 0.000000
vt 1.000000 1.000000
vt 0.000000 0.000000
vt 1.000000 1.000000
vt 0.000000 0.000000
vt 1.000000 1.000000
vt 0.000000 0.000000
vt 1.000000 1.000000
vt 0.000000 0.000000
vt 1.000000 1.000000
vt 0.000000 0.000000
vt 1.000000 1.000000
vt 0.000000 0.000000
vt 1.000000 1.000000
vt 0.000000 0.000000
vt 1.000000 1.000000
vt 0.000000 0.000000
vt 1.000000 1.000000
vt 0.000000 0.000000
vt 1.000000 1.000000
vt 0.000000 0.000000
vt 1.000000 1.000000
vt 0.000000 0.000000
vt 1.000000 1.000000
vt 0.000000 0.000000
vt 1.000000 1.000000
vt 0.000000 0.000000
vt 1.000000 1.000000
vt 0.000000 0.000000
vt 1.000000 1.000000
vt 0.000000 0.000000
vt 1.000000 1.000000
vt 0.000000 0.000000
vt 1.000000 1.000000
vt 0.000000 0.000000
vt 1.000000 1.000000
vt 0.000000 0.000000
vt 1.000000 1.000000
vt 0.000000 0.000000
vt 1.000000 1.000000
vt 0.000000 0.000000
vt 1.000000 1.000000
vt 0.000000 0.000000
vt 1.000000 1.000000
vt 0.000000 0.000000
vt 1.000000 1.000000
vt 0.000000 0.000000
vt 1.000000 1.000000
vt 0.000000 0.000000
vt 1.000000 1.000000
vt 0.000000 0.000000
vt 1.000000 1.000000
vt 0.000000 0.000000
vt 1.000000 1.000000
vt 0.000000 0.000000
vt 1.000000 1.000000
vt 0.000000 0.000000
vt 1.000000 1.000000
vt 1.000000 0.000000
vt 0.000000 0.000000
vt 1.000000 0.000000
vt 1.000000 1.000000
vt 0.000000 0.000000
vt 1.000000 0.000000
vt 1.000000 1.000000
vt 0.000000 0.000000
vt 1.000000 0.000000
vt 1.000000 1.000000
vt 0.000000 0.000000
vt 1.000000 0.000000
vt 1.000000 1.000000
vt 0.000000 0.000000
vt 1.000000 0.000000
vt 1.000000 1.000000
vt 0.000000 0.000000
vt 1.000000 0.000000
vt 1.000000 1.000000
vt 0.000000 0.000000
vt 1.000000 0.000000
vt 1.000000 1.000000
vt 0.000000 0.000000
vt 1.000000 0.000000
vt 1.000000 1.000000
vt 0.000000 0.000000
vt 1.000000 0.000000
vt 1.000000 1.000000
vt 0.000000 0.000000
vt 1.000000 0.000000
vt 1.000000 1.000000
vt 0.000000 0.000000
vt 1.000000 0.000000
vt 1.000000 1.000000
vt 0.000000 0.000000
vt 1.000000 0.000000
vt 1.000000 1.000000
vt 0.000000 0.000000
vt 1.000000 0.000000
vt 1.000000 1.000000
vt 0.000000 0.000000
vt 1.000000 0.000000
vt 1.000000 1.000000
vt 0.000000 0.000000
vt 1.000000 0.000000
vt 1.000000 1.000000
vt 0.000000 0.000000
vt 1.000000 0.000000
vt 1.000000 1.000000
vt 0.000000 0.000000
vt 1.000000 0.000000
vt 1.000000 1.000000
vt 0.000000 0.000000
vt 1.000000 0.000000
vt 1.000000 1.000000
vt 0.000000 0.000000
vt 1.000000 0.000000
vt 1.000000 1.000000
vt 0.000000 0.000000
vt 1.000000 0.000000
vt 1.000000 1.000000
vt 0.000000 0.000000
vt 1.000000 0.000000
vt 1.000000 1.000000
vt 0.000000 0.000000
vt 1.000000 0.000000
vt 1.000000 1.000000
vt 0.000000 0.000000
vt 1.000000 0.000000
vt 1.000000 1.000000
vt 0.000000 0.000000
vt 1.000000 0.000000
vt 1.000000 1.000000
vt 0.000000 0.000000
vt 1.000000 0.000000
vt 1.000000 1.000000
vt 0.000000 0.000000
vt 1.000000 0.000000
vt 1.000000 1.000000
vt 0.000000 0.000000
vt 1.000000 0.000000
vt 1.000000 1.000000
vt 0.000000 0.000000
vt 1.000000 0.000000
vt 1.000000 1.000000
vt 0.000000 0.000000
vt 1.000000 0.000000
vt 1.000000 1.000000
vt 0.000000 0.000000
vt 1.000000 0.000000
vt 1.000000 1.000000
vt 1.000000 0.000000
vt 1.000000 1.000000
vt 0.000000 0.000000
vt 1.000000 0.000000
vt 1.000000 1.000000
vt 0.000000 0.000000
vt 1.000000 0.000000
vt 1.000000 1.000000
vt 0.531157 0.000000
vt 0.531157 0.500000
vt 0.000000 0.500000
vt 1.000000 0.000000
vt 1.000000 0.000000
vt 1.000000 0.000000
vt 1.000000 0.000000
vt 1.000000 0.000000
vt 1.000000 0.000000
vt 1.000000 0.000000
vt 1.000000 0.000000
vt 1.000000 0.000000
vt 1.000000 0.000000
vt 1.000000 0.000000
vt 1.000000 0.000000
vt 1.000000 0.000000
vt 1.000000 0.000000
vt 1.000000 0.000000
vt 1.000000 0.000000
vt 1.000000 0.000000
vt 1.000000 0.000000
vt 1.000000 0.000000
vt 1.000000 0.000000
vt 1.000000 0.000000
vt 1.000000 0.000000
vt 1.000000 0.000000
vt 1.000000 0.000000
vt 1.000000 0.000000
vt 1.000000 0.000000
vt 1.000000 0.000000
vt 1.000000 0.000000
vt 1.000000 0.000000
vt 1.000000 0.000000
vt 1.000000 0.000000
vt 1.000000 0.000000
vt 1.000000 0.000000
vt 1.000000 0.000000
vt 1.000000 0.000000
vt 1.000000 0.000000
vt 1.000000 0.000000
vt 1.000000 0.000000
vt 1.000000 0.000000
vt 1.000000 0.000000
vt 1.000000 0.000000
vt 1.000000 0.000000
vt 1.000000 0.000000
vt 1.000000 0.000000
vt 1.000000 0.000000
vt 1.000000 0.000000
vt 1.000000 0.000000
vt 1.000000 0.000000
vt 1.000000 0.000000
vt 1.000000 0.000000
vt 1.000000 0.000000
vt 1.000000 0.000000
vt 1.000000 0.000000
vt 1.000000 0.000000
vt 1.000000 0.000000
vt 1.000000 0.000000
vt 1.000000 0.000000
vt 1.000000 0.000000
vt 1.000000 0.000000
vt 1.000000 0.000000
vt 1.000000 0.000000
vt 1.000000 0.000000
vt 1.000000 0.000000
vt 1.000000 0.000000
vt 1.000000 0.000000
vt 1.000000 0.000000
vt 1.000000 0.000000
vt 1.000000 0.000000
vt 1.000000 0.000000
vt 1.000000 0.000000
vt 1.000000 0.000000
vt 1.000000 0.000000
vt 1.000000 0.000000
vt 1.000000 0.000000
vt 1.000000 0.000000
vt 1.000000 0.000000
vt 1.000000 0.000000
vt 1.000000 0.000000
vt 1.000000 0.000000
vt 1.000000 0.000000
vt 1.000000 0.000000
vt 1.000000 0.000000
vt 1.000000 0.000000
vt 1.000000 0.000000
vt 1.000000 1.000000
vt 1.000000 0.000000
vt 1.000000 1.000000
vt 1.000000 1.000000
vt 1.000000 1.000000
vt 1.000000 1.000000
vt 1.000000 1.000000
vt 1.000000 1.000000
vt 1.000000 1.000000
vt 1.000000 1.000000
vt 1.000000 1.000000
vt 1.000000 1.000000
vt 1.000000 1.000000
vt 1.000000 0.000000
vt 0.567241 0.845056
vt 0.560024 0.776081
vt 0.567241 0.707107
vt 0.552807 0.845056
vt 0.545590 0.776081
vt 0.552807 0.707107
vt 0.545590 0.845056
vt 0.538374 0.776081
vt 0.545590 0.707107
vt 0.839827 0.721258
vt 0.854191 0.653281
vt 0.854191 0.858543
vt 0.470492 0.566324
vt 0.491865 0.500000
vt 0.491865 0.770598
vt 0.560024 0.845056
vt 0.552807 0.776081
vt 0.560024 0.707107
vt 0.854191 0.721258
vt 0.868555 0.653281
vt 0.868555 0.858543
vt 0.491865 0.566324
vt 0.513238 0.500000
vt 0.513238 0.770598
vt 0.427746 0.770598
vt 0.406373 0.704274
vt 0.427746 0.500000
vt 0.839827 0.858543
vt 0.825463 0.790567
vt 0.839827 0.653281
vt 0.538374 0.845056
vt 0.531157 0.776081
vt 0.538374 0.707107
vt 0.527602 0.843212
vt 0.520385 0.774237
vt 0.527602 0.705262
vt 0.890206 0.791231
vt 0.882989 0.722256
vt 0.890206 0.653281
vt 0.406373 0.770598
vt 0.385000 0.704274
vt 0.406373 0.500000
vt 0.825463 0.858543
vt 0.811099 0.790567
vt 0.825463 0.653281
vt 0.882989 0.791231
vt 0.875772 0.722256
vt 0.882989 0.653281
vt 0.875772 0.791231
vt 0.868555 0.722256
vt 0.875772 0.653281
vt 0.796735 0.721258
vt 0.811099 0.653281
vt 0.811099 0.858543
vt 0.427746 0.566324
vt 0.449119 0.500000
vt 0.449119 0.770598
vt 0.470492 0.770598
vt 0.449119 0.704274
vt 0.470492 0.500000
vt 0.527602 0.705262
vt 0.513238 0.637285
vt 0.527602 0.500000
vt 0.897422 0.791231
vt 0.890206 0.722256
vt 0.897422 0.653281
vt 0.272839 0.999999
vt 0.191423 0.885299
vt 0.272839 0.500000
vt 0.385000 0.892847
vt 0.328920 0.765398
vt 0.385000 0.500000
vt 0.191423 1.000000
vt 0.110006 0.885299
vt 0.191423 0.500000
vt 0.328920 0.892847
vt 0.272839 0.765399
vt 0.328920 0.500000
vt 0.796735 0.191342
vt 1.000000 0.653281
vt 0.531157 0.103554
vt 0.796735 0.000000
vt 0.796735 0.707107
vt 0.110006 1.000000
vt 0.000000 0.750000
vt 0.110006 0.500000
vn 0.0972 0.9601 0.2621
vn 0.2827 0.9227 0.2621
vn 0.4573 0.8498 0.2621
vn 0.6143 0.7443 0.2621
vn 0.7477 0.6102 0.2621
vn 0.8523 0.4526 0.2621
vn 0.9242 0.2776 0.2621
vn 0.9606 0.0920 0.2621
vn 0.9601 -0.0972 0.2621
vn 0.9227 -0.2827 0.2621
vn 0.8498 -0.4573 0.2621
vn 0.7443 -0.6143 0.2621
vn 0.6102 -0.7477 0.2621
vn 0.4526 -0.8523 0.2621
vn 0.2776 -0.9242 0.2621
vn 0.0919 -0.9606 0.2621
vn -0.0972 -0.9601 0.2621
vn -0.2827 -0.9227 0.2621
vn -0.4573 -0.8498 0.2621
vn -0.6143 -0.7443 0.2621
vn -0.7477 -0.6102 0.2621
vn -0.8523 -0.4526 0.2621
vn -0.9242 -0.2776 0.2621
vn -0.9606 -0.0919 0.2621
vn -0.9601 0.0972 0.2621
vn -0.9227 0.2827 0.2621
vn -0.8498 0.4573 0.2621
vn -0.7443 0.6143 0.2621
vn -0.6102 0.7477 0.2621
vn -0.4526 0.8523 0.2621
vn -0.2776 0.9242 0.2621
vn -0.0919 0.9606 0.2621
vn -0.0000 0.0000 -1.0000
vn 0.9606 0.0919 0.2621
vn 0.1008 0.9949 0.0000
vn 0.2929 0.9561 0.0000
vn 0.4738 0.8806 0.0000
vn 0.6365 0.7713 0.0000
vn 0.7748 0.6323 0.0000
vn 0.8832 0.4690 0.0000
vn 0.9577 0.2877 0.0000
vn 0.9955 0.0953 0.0000
vn 0.9949 -0.1008 -0.0000
vn 0.9561 -0.2929 -0.0000
vn 0.8806 -0.4738 -0.0000
vn 0.7713 -0.6365 -0.0000
vn 0.6323 -0.7748 -0.0000
vn 0.4690 -0.8832 -0.0000
vn 0.2877 -0.9577 -0.0000
vn 0.0953 -0.9955 -0.0000
vn -0.1008 -0.9949 -0.0000
vn -0.2929 -0.9561 -0.0000
vn -0.4738 -0.8806 -0.0000
vn -0.6365 -0.7713 -0.0000
vn -0.7748 -0.6323 -0.0000
vn -0.8832 -0.4690 -0.0000
vn -0.9577 -0.2877 -0.0000
vn -0.9955 -0.0953 -0.0000
vn -0.9949 0.1008 0.0000
vn -0.9561 0.2929 0.0000
vn -0.8806 0.4738 0.0000
vn -0.7713 0.6365 0.0000
vn -0.6323 0.7748 0.0000
vn -0.4690 0.8832 0.0000
vn 0.0000 0.0000 1.0000
vn -0.2877 0.9577 0.0000
vn -0.0953 0.9955 0.0000
vn -0.0001 0.0000 -1.0000
usemtl None
s off
f 1/1/1 24/2/1 2/3/1
f 2/4/2 24/2/2 3/5/2
f 3/6/3 24/2/3 4/7/3
f 4/8/4 24/2/4 5/9/4
f 5/10/5 24/2/5 6/11/5
f 6/12/6 24/2/6 7/13/6
f 7/14/7 24/2/7 8/15/7
f 8/16/8 24/2/8 9/17/8
f 9/18/9 24/2/9 10/19/9
f 10/20/10 24/2/10 11/21/10
f 11/22/11 24/2/11 12/23/11
f 12/24/12 24/2/12 13/25/12
f 13/26/13 24/2/13 14/27/13
f 14/28/14 24/2/14 15/29/14
f 15/30/15 24/2/15 16/31/15
f 16/32/16 24/2/16 17/33/16
f 17/34/17 24/2/17 18/35/17
f 18/36/18 24/2/18 19/37/18
f 19/38/19 24/2/19 20/39/19
f 20/40/20 24/2/20 21/41/20
f 21/42/21 24/2/21 22/43/21
f 22/44/22 24/2/22 23/45/22
f 23/46/23 24/2/23 25/47/23
f 25/48/24 24/2/24 26/49/24
f 26/50/25 24/2/25 27/51/25
f 27/52/26 24/2/26 28/53/26
f 28/54/27 24/2/27 29/55/27
f 29/56/28 24/2/28 30/57/28
f 30/58/29 24/2/29 31/59/29
f 31/60/30 24/2/30 32/61/30
f 32/62/31 24/2/31 33/63/31
f 33/64/32 24/2/32 1/65/32
f 8/16/33 16/66/33 25/47/33
f 34/67/1 57/68/1 35/69/1
f 35/70/2 57/68/2 36/71/2
f 36/72/3 57/68/3 37/73/3
f 37/74/4 57/68/4 38/75/4
f 38/76/5 57/68/5 39/77/5
f 39/78/6 57/68/6 40/79/6
f 40/80/7 57/68/7 41/81/7
f 41/82/34 57/68/34 42/83/34
f 42/84/9 57/68/9 43/85/9
f 43/86/10 57/68/10 44/87/10
f 44/88/11 57/68/11 45/89/11
f 45/90/12 57/68/12 46/91/12
f 46/92/13 57/68/13 47/93/13
f 47/94/14 57/68/14 48/95/14
f 48/96/15 57/68/15 49/97/15
f 49/98/16 57/68/16 50/99/16
f 50/100/17 57/68/17 51/101/17
f 51/102/18 57/68/18 52/103/18
f 52/104/19 57/68/19 53/105/19
f 53/106/20 57/68/20 54/107/20
f 54/108/21 57/68/21 55/109/21
f 55/110/22 57/68/22 56/111/22
f 56/112/23 57/68/23 58/113/23
f 58/114/24 57/68/24 59/115/24
f 59/116/25 57/68/25 60/117/25
f 60/118/26 57/68/26 61/119/26
f 61/120/27 57/68/27 62/121/27
f 62/122/28 57/68/28 63/123/28
f 63/124/29 57/68/29 64/125/29
f 64/126/30 57/68/30 65/127/30
f 65/128/31 57/68/31 66/129/31
f 66/130/32 57/68/32 34/131/32
f 53/106/33 58/132/33 66/129/33
f 68/133/35 69/134/35 67/135/35
f 70/136/36 71/137/36 69/138/36
f 72/139/37 73/140/37 71/141/37
f 74/142/38 75/143/38 73/144/38
f 76/145/39 77/146/39 75/147/39
f 78/148/40 79/149/40 77/150/40
f 80/151/41 81/152/41 79/153/41
f 82/154/42 83/155/42 81/156/42
f 84/157/43 85/158/43 83/159/43
f 86/160/44 87/161/44 85/162/44
f 88/163/45 89/164/45 87/165/45
f 90/166/46 91/167/46 89/168/46
f 92/169/47 93/170/47 91/171/47
f 94/172/48 95/173/48 93/174/48
f 96/175/49 97/176/49 95/177/49
f 98/178/50 99/179/50 97/180/50
f 100/181/51 101/182/51 99/183/51
f 102/184/52 103/185/52 101/186/52
f 104/187/53 105/188/53 103/189/53
f 106/190/54 107/191/54 105/192/54
f 108/193/55 109/194/55 107/195/55
f 110/196/56 111/197/56 109/198/56
f 112/199/57 113/200/57 111/201/57
f 114/202/58 115/203/58 113/204/58
f 116/205/59 117/206/59 115/207/59
f 118/208/60 119/209/60 117/210/60
f 120/211/61 121/212/61 119/213/61
f 122/214/62 123/215/62 121/216/62
f 124/217/63 125/218/63 123/219/63
f 126/220/64 127/221/64 125/222/64
f 72/139/65 120/223/65 104/224/65
f 128/225/66 129/226/66 127/227/66
f 130/228/67 67/229/67 129/230/67
f 97/231/33 113/232/33 129/233/33
f 33/64/33 1/234/33 2/3/33
f 2/4/33 3/235/33 4/7/33
f 4/8/33 5/236/33 6/11/33
f 6/12/33 7/237/33 4/7/33
f 7/14/33 8/238/33 4/7/33
f 8/16/33 9/239/33 10/19/33
f 10/20/33 11/240/33 8/15/33
f 11/22/33 12/241/33 8/15/33
f 12/24/33 13/242/33 16/31/33
f 13/26/33 14/243/33 16/31/33
f 14/28/33 15/244/33 16/31/33
f 16/32/33 17/245/33 18/35/33
f 18/36/33 19/246/33 20/39/33
f 20/40/33 21/247/33 22/43/33
f 22/44/33 23/248/33 25/47/33
f 25/48/33 26/249/33 27/51/33
f 27/52/33 28/250/33 29/55/33
f 29/56/33 30/251/33 33/63/33
f 30/58/33 31/252/33 33/63/33
f 31/60/33 32/253/33 33/63/33
f 33/64/33 2/254/33 4/7/33
f 16/32/33 18/255/33 25/47/33
f 18/36/33 20/256/33 25/47/33
f 20/40/33 22/257/33 25/47/33
f 25/48/33 27/258/33 33/63/33
f 27/52/33 29/259/33 33/63/33
f 33/64/33 4/260/33 8/15/33
f 8/16/33 12/241/33 16/31/33
f 33/64/33 8/238/33 25/47/33
f 66/130/33 34/261/33 35/69/33
f 35/70/33 36/262/33 37/73/33
f 37/74/33 38/263/33 41/81/33
f 38/76/33 39/264/33 41/81/33
f 39/78/33 40/265/33 41/81/33
f 41/82/33 42/266/33 43/85/33
f 43/86/33 44/267/33 41/81/33
f 44/88/33 45/268/33 41/81/33
f 45/90/33 46/269/33 47/93/33
f 47/94/33 48/270/33 49/97/33
f 49/98/33 50/271/33 51/101/33
f 51/102/33 52/272/33 49/97/33
f 52/104/33 53/273/33 49/97/33
f 53/106/33 54/274/33 55/109/33
f 55/110/68 56/275/68 58/113/68
f 58/114/68 59/276/68 60/117/68
f 60/118/33 61/277/33 62/121/33
f 62/122/33 63/278/33 66/129/33
f 63/124/33 64/279/33 66/129/33
f 64/126/33 65/280/33 66/129/33
f 66/130/33 35/281/33 37/73/33
f 45/90/33 47/282/33 41/81/33
f 47/94/33 49/283/33 41/81/33
f 53/106/33 55/284/33 58/113/33
f 58/114/33 60/285/33 66/129/33
f 60/118/33 62/286/33 66/129/33
f 66/130/33 37/287/33 49/97/33
f 37/74/33 41/288/33 49/97/33
f 49/98/33 53/273/33 66/129/33
f 68/133/35 70/289/35 69/138/35
f 70/136/36 72/290/36 71/141/36
f 72/139/37 74/291/37 73/144/37
f 74/142/38 76/292/38 75/147/38
f 76/145/39 78/293/39 77/150/39
f 78/148/40 80/294/40 79/153/40
f 80/151/41 82/295/41 81/156/41
f 82/154/42 84/296/42 83/159/42
f 84/157/43 86/297/43 85/162/43
f 86/160/44 88/298/44 87/165/44
f 88/163/45 90/299/45 89/168/45
f 90/166/46 92/300/46 91/171/46
f 92/169/47 94/301/47 93/174/47
f 94/172/48 96/302/48 95/177/48
f 96/175/49 98/303/49 97/180/49
f 98/178/50 100/304/50 99/183/50
f 100/181/51 102/305/51 101/186/51
f 102/184/52 104/306/52 103/189/52
f 104/187/53 106/307/53 105/192/53
f 106/190/54 108/308/54 107/195/54
f 108/193/55 110/309/55 109/198/55
f 110/196/56 112/310/56 111/201/56
f 112/199/57 114/311/57 113/204/57
f 114/202/58 116/312/58 115/207/58
f 116/205/59 118/313/59 117/210/59
f 118/208/60 120/223/60 119/213/60
f 120/211/61 122/314/61 121/216/61
f 122/214/62 124/315/62 123/219/62
f 124/217/63 126/316/63 125/222/63
f 126/220/64 128/317/64 127/227/64
f 72/139/65 70/289/65 68/318/65
f 68/133/65 130/319/65 128/320/65
f 128/225/65 126/316/65 124/321/65
f 124/217/65 122/314/65 120/322/65
f 120/211/65 118/313/65 116/323/65
f 116/205/65 114/311/65 120/322/65
f 114/202/65 112/310/65 120/322/65
f 112/199/65 110/309/65 104/224/65
f 110/196/65 108/308/65 104/224/65
f 108/193/65 106/307/65 104/224/65
f 104/187/65 102/305/65 100/324/65
f 100/181/65 98/303/65 96/325/65
f 96/175/65 94/301/65 92/326/65
f 92/169/65 90/299/65 88/327/65
f 88/163/65 86/297/65 84/328/65
f 84/157/65 82/295/65 88/327/65
f 82/154/65 80/294/65 88/327/65
f 80/151/65 78/293/65 76/329/65
f 76/145/65 74/291/65 80/330/65
f 74/142/65 72/290/65 80/330/65
f 72/139/65 68/331/65 120/322/65
f 68/133/65 128/317/65 120/322/65
f 128/225/65 124/315/65 120/322/65
f 104/187/65 100/304/65 88/327/65
f 100/181/65 96/302/65 88/327/65
f 96/175/65 92/300/65 88/327/65
f 120/211/65 112/310/65 104/224/65
f 88/163/65 80/294/65 104/224/65
f 80/151/65 72/290/65 104/224/65
f 128/225/66 130/319/66 129/230/66
f 130/228/67 68/331/67 67/135/67
f 129/332/33 67/333/33 69/334/33
f 69/335/33 71/336/33 73/337/33
f 73/338/33 75/339/33 77/340/33
f 77/341/33 79/342/33 73/343/33
f 79/344/33 81/345/33 73/346/33
f 81/347/33 83/348/33 85/349/33
f 85/350/33 87/351/33 81/352/33
f 87/353/33 89/354/33 81/355/33
f 89/356/33 91/357/33 97/358/33
f 91/359/33 93/360/33 97/361/33
f 93/362/33 95/363/33 97/364/33
f 97/365/33 99/366/33 101/367/33
f 101/368/33 103/369/33 105/370/33
f 105/371/33 107/372/33 113/373/33
f 107/374/33 109/375/33 113/376/33
f 109/377/33 111/378/33 113/379/33
f 113/380/33 115/381/33 117/382/33
f 117/383/33 119/384/33 113/385/33
f 119/386/33 121/387/33 113/388/33
f 121/389/33 123/390/33 129/391/33
f 123/392/33 125/393/33 129/394/33
f 125/395/33 127/396/33 129/397/33
f 129/398/33 69/399/33 81/400/33
f 69/401/33 73/402/33 81/403/33
f 97/404/33 101/405/33 113/406/33
f 101/407/33 105/408/33 113/409/33
f 81/410/33 89/164/33 129/411/33
f 89/412/33 97/413/33 129/414/33
f 113/415/33 121/416/33 129/417/33
